# xmcd
#
# Track frame offsets: 
#        150
#        21622
#        33140
#        52059
#        62591
#        74944
#        91609
#        124920
#        137037
#        150495
#        161689
#        173826
#        203173
#        209713
#        238322
#        254005
#        270932
#        282627
#        294514
#        312646
#        316292
#        324553
#        334810
#        346711
#
# Disc length: 4779 seconds
#
# Revision: 0
# Processed by: cddbd v1.5.2PL0 Copyright (c) Steve Scherf et al.
# Submitted via: ExactAudioCopy v0.95b3
#
DISCID=7f12a918
DTITLE=The Monkees  - The Monkees Complete 09 of 28
DYEAR=1900
DGENRE=
TTITLE0=No Time (1st version tracking sessions)
TTITLE1=No Time (2nd version no lead vocal)
TTITLE2=No Time (2nd version tracking sessions)
TTITLE3=No Time (alt. mix)
TTITLE4=No Time (backing track)
TTITLE5=Peter Gunn's Gun
TTITLE6=Pillow Time (demo)
TTITLE7=Randy Scouse Git (alt. mix)
TTITLE8=Randy Scouse Git (alternate mix with unused
TTITLE9=Randy Scouse Git (alternate version)
TTITLE10=Randy Scouse Git (backing track)
TTITLE11=Randy Scouse Git (tracking sessions)
TTITLE12=Seeger's Theme (demo)
TTITLE13=Setting Up The Studio For "Randy Scouse
TTITLE14=Shades Of Gray (alt. mix)
TTITLE15=Shades Of Gray (backing track)
TTITLE16=She Hangs Out
TTITLE17=She'll Be There (demo)
TTITLE18=She's So Far Out She's In (tracking
TTITLE19=Six-String Improvisation
TTITLE20=Studio Chat - Jericho (4.1 composite)
TTITLE21=Sunny Girlfriend (acoustic remix)
TTITLE22=Sunny Girlfriend (backing track)
TTITLE23=Sunny Girlfriend (tracking session)
EXTD=
EXTT0=
EXTT1=
EXTT2=
EXTT3=
EXTT4=
EXTT5=
EXTT6=
EXTT7=
EXTT8=
EXTT9=
EXTT10=
EXTT11=
EXTT12=
EXTT13=
EXTT14=
EXTT15=
EXTT16=
EXTT17=
EXTT18=
EXTT19=
EXTT20=
EXTT21=
EXTT22=
EXTT23=
PLAYORDER=
